<svg xmlns="http://www.w3.org/2000/svg" xmlns:xlink="http://www.w3.org/1999/xlink" width="48" height="48"><defs><linearGradient id="a"><stop offset="0"/><stop offset="1" stop-opacity="0"/></linearGradient><linearGradient id="b"><stop offset="0" stop-opacity="0"/><stop offset=".5"/><stop offset="1" stop-opacity="0"/></linearGradient><linearGradient xlink:href="#b" id="i" gradientUnits="userSpaceOnUse" gradientTransform="matrix(2.77439 0 0 1.9697 -1892.179 -872.885)" x1="302.857" y1="366.648" x2="302.857" y2="609.505"/><linearGradient id="h"><stop offset="0"/><stop offset="1" stop-opacity="0"/></linearGradient><linearGradient id="g"><stop offset="0" stop-color="#6194cb"/><stop offset="1" stop-color="#729fcf"/></linearGradient><linearGradient id="f"><stop offset="0" stop-color="#424242"/><stop offset="1" stop-color="#777"/></linearGradient><linearGradient id="e"><stop offset="0" stop-color="#fff"/><stop offset="1" stop-color="#fff" stop-opacity="0"/></linearGradient><linearGradient id="c"><stop offset="0" stop-color="#202020"/><stop offset="1" stop-color="#b9b9b9"/></linearGradient><linearGradient id="d"><stop offset="0" stop-color="#fff" stop-opacity=".876"/><stop offset="1" stop-color="#fffffe" stop-opacity="0"/></linearGradient><linearGradient xlink:href="#d" id="n" gradientUnits="userSpaceOnUse" gradientTransform="matrix(1.51684 0 0 .70898 -.88 -1.318)" x1="6.23" y1="13.773" x2="9.898" y2="66.834"/><linearGradient gradientUnits="userSpaceOnUse" y2="46.689" x2="12.854" y1="32.567" x1="13.036" gradientTransform="matrix(1.31749 0 0 .81626 -.88 -1.318)" id="p" xlink:href="#e"/><linearGradient gradientUnits="userSpaceOnUse" y2="6.18" x2="15.515" y1="31.368" x1="18.113" id="m" xlink:href="#f"/><linearGradient xlink:href="#g" id="o" x1="22.176" y1="36.988" x2="22.065" y2="32.05" gradientUnits="userSpaceOnUse"/><radialGradient xlink:href="#a" id="k" gradientUnits="userSpaceOnUse" gradientTransform="matrix(-2.77439 0 0 1.9697 112.762 -872.885)" cx="605.714" cy="486.648" fx="605.714" fy="486.648" r="117.143"/><radialGradient xlink:href="#a" id="j" gradientUnits="userSpaceOnUse" gradientTransform="matrix(2.77439 0 0 1.9697 -1891.633 -872.885)" cx="605.714" cy="486.648" fx="605.714" fy="486.648" r="117.143"/><radialGradient xlink:href="#c" id="l" gradientUnits="userSpaceOnUse" gradientTransform="matrix(1.05502 -.02735 .1777 1.19093 -3.572 -7.125)" cx="20.706" cy="37.518" fx="20.706" fy="37.518" r="30.905"/></defs><g color="#000"><path style="marker:none" opacity=".402" fill="url(#i)" overflow="visible" d="M-1559.252-150.697h1339.633V327.66h-1339.633z" transform="matrix(.02262 0 0 .02087 43.383 36.37)"/><path style="marker:none" d="M-219.619-150.68v478.33c142.874.9 345.4-107.17 345.4-239.196S-33.655-150.68-219.619-150.68z" opacity=".402" fill="url(#j)" overflow="visible" transform="matrix(.02262 0 0 .02087 43.383 36.37)"/><path d="M-1559.252-150.68v478.33c-142.875.9-345.4-107.17-345.4-239.196s159.436-239.134 345.4-239.134z" style="marker:none" opacity=".402" fill="url(#k)" overflow="visible" transform="matrix(.02262 0 0 .02087 43.383 36.37)"/></g><path d="M4.522 38.687c.022.417.46.833.876.833h31.327c.416 0 .81-.416.789-.833l-.936-27.226c-.022-.417-.46-.833-.877-.833h-13.27c-.486 0-1.235-.316-1.402-1.107l-.612-2.893c-.155-.735-.882-1.038-1.298-1.038H4.34c-.416 0-.81.417-.789.833l.97 32.264z" fill="url(#l)" stroke="url(#m)" stroke-linecap="round" stroke-linejoin="round"/><path d="M5.227 22.563h30.265M5.042 18.563H35.49M4.98 12.563h30.508M5.386 32.563h30.109M5.51 34.563h29.987M5.042 16.563H35.49M5.011 14.563H35.49M4.922 10.563h15.28M4.874 8.562h14.783M5.325 28.563h30.169M5.288 26.563h30.205M5.227 24.563h30.265M5.196 20.563h30.296M5.325 30.563h30.169M5.51 36.563h29.987" style="marker:none" opacity=".114" color="#000" fill="#729fcf" stroke="#000" stroke-linecap="round" stroke-linejoin="round" overflow="visible"/><path style="marker:none" d="M6.068 38.864c.017.312-.18.52-.498.416-.318-.104-.537-.312-.553-.624L4.069 6.59c-.016-.312.165-.5.477-.5l14.422-.048c.313 0 .932.3 1.133 1.322l.574 2.816c-.427-.466-.42-.48-.638-1.157l-.406-1.26c-.219-.727-.698-.831-1.01-.831H5.733c-.312 0-.51.208-.493.52l.938 31.515-.11-.104z" color="#000" fill="url(#n)" display="block" overflow="visible" opacity=".451"/><path d="M35.94 11.533c0-.101-.147-.257-.258-.257l-13.563-.002s.981.612 2.324.62l11.508.074c0-.22-.01-.266-.01-.435z" fill-opacity=".508" stroke-width=".999" fill="#fff"/><path style="marker:none" d="M39.784 39.51c1.143-.043 1.963-1.096 2.047-2.32a1141.35 1141.35 0 0 1 1.659-21.232c.072-.248-.168-.495-.48-.495H8.639L6.789 37.33c-.115.982-.467 1.804-1.55 2.183l34.545-.002z" color="#000" fill="url(#o)" stroke="#3465a4" stroke-linejoin="round" display="block"/><path d="m9.62 16.464 32.791.065-1.574 20.002c-.084 1.071-.45 1.428-1.872 1.428-1.872 0-28.678-.032-31.395-.032.233-.321.334-.99.335-1.005L9.62 16.464z" opacity=".466" fill="none" stroke="url(#p)" stroke-linecap="round"/><path d="M9.62 16.223 8.454 31.866s8.296-4.148 18.666-4.148c10.37 0 15.555-11.495 15.555-11.495H9.62z" fill="#fff" fill-opacity=".089" fill-rule="evenodd"/></svg>