<svg xmlns="http://www.w3.org/2000/svg" xmlns:xlink="http://www.w3.org/1999/xlink" height="48" width="48"><defs><linearGradient id="D"><stop offset="0" stop-color="#888a85"/><stop offset="1" stop-color="#d3d7cf"/></linearGradient><linearGradient id="C"><stop offset="0" stop-color="#eeeeec"/><stop offset="1" stop-color="#babdb6"/></linearGradient><linearGradient id="A"><stop offset="0"/><stop offset="1" stop-opacity="0"/></linearGradient><linearGradient id="z"><stop offset="0" stop-opacity="0"/><stop offset=".5"/><stop offset="1" stop-opacity="0"/></linearGradient><linearGradient id="b"><stop offset="0"/><stop offset="1" stop-opacity="0"/></linearGradient><linearGradient id="c"><stop offset="0" stop-color="#fff"/><stop offset="1" stop-color="#ccc"/></linearGradient><linearGradient id="a"><stop offset="0"/><stop offset="1" stop-opacity="0"/></linearGradient><linearGradient id="B"><stop offset="0" stop-color="#fffcde"/><stop offset=".645" stop-color="#729fcf"/><stop offset="1" stop-color="#3465a4"/></linearGradient><linearGradient id="e"><stop offset="0" stop-color="#4d4d4d"/><stop offset="1" stop-color="#4d4d4d" stop-opacity="0"/></linearGradient><linearGradient id="g"><stop offset="0" stop-color="#989783"/><stop offset="1" stop-color="#6f6f6c"/></linearGradient><linearGradient id="h"><stop offset="0" stop-color="#71736a"/><stop offset="1" stop-color="#4d4d4d"/></linearGradient><linearGradient id="i"><stop offset="0" stop-color="#fff"/><stop offset="1" stop-color="#fff" stop-opacity="0"/></linearGradient><linearGradient id="j"><stop offset="0" stop-color="#a0a193"/><stop offset="1" stop-color="#a0938d"/></linearGradient><linearGradient id="k"><stop offset="0" stop-color="#5a564a"/><stop offset="1" stop-color="#784421"/></linearGradient><linearGradient id="l"><stop offset="0" stop-color="#fff"/><stop offset="1" stop-color="#fff" stop-opacity="0"/></linearGradient><linearGradient id="m"><stop offset="0" stop-color="#aa895c"/><stop offset="1" stop-color="#dbb77e"/></linearGradient><linearGradient id="n"><stop offset="0" stop-color="#e6c487"/><stop offset=".5" stop-color="#ffffea"/><stop offset="1" stop-color="#e6c487"/></linearGradient><linearGradient id="o"><stop offset="0" stop-color="#fff"/><stop offset="1" stop-color="#969799" stop-opacity="0"/></linearGradient><linearGradient id="p"><stop offset="0" stop-color="#9c9d9f"/><stop offset="1" stop-color="#8a9d9f"/></linearGradient><linearGradient id="q"><stop offset="0" stop-color="#666"/><stop offset="1" stop-color="#999"/></linearGradient><linearGradient id="r"><stop offset="0"/><stop offset="1" stop-color="#333"/></linearGradient><linearGradient id="s"><stop offset="0" stop-color="#5e6262" stop-opacity=".332"/><stop offset=".5" stop-color="#484a4a"/><stop offset="1" stop-color="#333"/></linearGradient><linearGradient id="t"><stop offset="0" stop-color="#333"/><stop offset="1" stop-color="#333" stop-opacity="0"/></linearGradient><linearGradient id="u"><stop offset="0" stop-color="#fff"/><stop offset=".372" stop-color="#999"/><stop offset="1" stop-color="#333"/></linearGradient><linearGradient id="f"><stop offset="0" stop-color="#151515"/><stop offset="1"/></linearGradient><linearGradient id="v"><stop offset="0" stop-color="#824612"/><stop offset="1" stop-color="#824612" stop-opacity="0"/></linearGradient><linearGradient id="y"><stop offset="0"/><stop offset="1" stop-opacity="0"/></linearGradient><linearGradient id="w"><stop offset="0" stop-color="#fff"/><stop offset="1" stop-color="#ccc"/></linearGradient><linearGradient id="x"><stop offset="0"/><stop offset="1" stop-opacity="0"/></linearGradient><linearGradient xlink:href="#z" id="E" gradientUnits="userSpaceOnUse" gradientTransform="matrix(2.77439 0 0 1.9697 -1892.179 -872.885)" x1="302.857" y1="366.648" x2="302.857" y2="609.505"/><linearGradient xlink:href="#D" id="H" x1="21.963" y1="37.048" x2="22.199" y2="27.862" gradientUnits="userSpaceOnUse"/><linearGradient xlink:href="#C" id="I" gradientUnits="userSpaceOnUse" x1="-28.073" y1="28.651" x2="-28.073" y2="32.945"/><radialGradient gradientUnits="userSpaceOnUse" fy="39.593" fx="25.053" r="15.757" cy="39.593" cx="25.053" id="d" gradientTransform="matrix(1.25 0 0 1.25 53.52 -13.372)"><stop offset="0" stop-color="#777"/><stop offset="1"/></radialGradient><radialGradient xlink:href="#A" id="F" gradientUnits="userSpaceOnUse" gradientTransform="matrix(2.77439 0 0 1.9697 -1891.633 -872.885)" cx="605.714" cy="486.648" fx="605.714" fy="486.648" r="117.143"/><radialGradient xlink:href="#A" id="G" gradientUnits="userSpaceOnUse" gradientTransform="matrix(-2.77439 0 0 1.9697 112.762 -872.885)" cx="605.714" cy="486.648" fx="605.714" fy="486.648" r="117.143"/></defs><path d="M24.895 30.62a4.5 4.5 0 1 1-9 0 4.5 4.5 0 1 1 9 0z"/><g color="#000"><path style="marker:none" opacity=".402" fill="url(#E)" overflow="visible" d="M-1559.252-150.697h1339.633V327.66h-1339.633z" transform="matrix(.01391 -.00273 .00311 .02056 36.817 33.6)"/><path d="M-219.619-150.68v478.33c142.874.9 345.4-107.17 345.4-239.196S-33.655-150.68-219.619-150.68z" style="marker:none" opacity=".402" fill="url(#F)" overflow="visible" transform="matrix(.01391 -.00273 .00311 .02056 36.817 33.6)"/><path style="marker:none" d="M-1559.252-150.68v478.33c-142.875.9-345.4-107.17-345.4-239.196s159.436-239.134 345.4-239.134z" opacity=".402" fill="url(#G)" overflow="visible" transform="matrix(.01391 -.00273 .00311 .02056 36.817 33.6)"/></g><g fill="#555353"><path d="m10.658 7.925.98-.2 5.999 29.394-.98.2z"/><path d="M8.636 7.723h3v1h-3z"/></g><g fill="#a40000"><path d="M5.297 7.725h5v1h-5z"/><path d="M9.297 6.725h1v3h-1z"/></g><g fill="#555353"><path d="m14.168 4.28.98-.2 5.999 29.395-.98.2z"/><path d="M12.146 4.078h3v1h-3z"/></g><g fill="#a40000"><path d="M8.807 4.08h5v1h-5z"/><path d="M12.807 3.08h1v3h-1z"/></g><path fill="#555353" d="m13.24 19.968 3.464-4.9.817.578-3.465 4.899z"/><path d="m15.11 24.735 3.35-5.492.931-.155 2.917 14.241 14.737-2.947.217.962-3.32 5.46-15.792 3.258z" fill="url(#H)"/><path d="m20.042 39.167 13.607-2.786 3.395-5.517" fill="none" stroke="#888a85" stroke-linecap="round"/><path d="m20.042 39.167 13.607-2.786 3.395-5.517" fill="none" stroke="#000" stroke-linecap="round" opacity=".2"/><path d="M21.52 36.56a4.5 4.5 0 1 1-9 0 4.5 4.5 0 1 1 9 0z"/><path d="M-26.136 30.756a2.02 2.02 0 1 1-4.041 0 2.02 2.02 0 1 1 4.041 0z" transform="matrix(1.732 0 0 1.732 65.786 -16.709)" fill="url(#I)"/><path d="M18.02 36.56a1 1 NaN 1 1-2 0 1 1 NaN 1 1 2 0z"/><path d="M20.02 36.56a3 3 0 1 1-6 0 3 3 0 1 1 6 0z" opacity=".5" fill="none" stroke="#fff" stroke-width="1.0000634800000001"/></svg>