<?xml version="1.0" encoding="UTF-8" standalone="no"?>
<!-- Created with Inkscape (http://www.inkscape.org/) -->
<svg width="12.459681mm" height="10.0000029mm" viewBox="-2 -2 15.459681 10.0000029" version="1.1" id="svg5" inkscape:version="1.1.1 (3bf5ae0d25, 2021-09-20)" sodipodi:docname="pipelinejob.svg" xmlns:inkscape="http://www.inkscape.org/namespaces/inkscape" xmlns:sodipodi="http://sodipodi.sourceforge.net/DTD/sodipodi-0.dtd" xmlns="http://www.w3.org/2000/svg" xmlns:svg="http://www.w3.org/2000/svg">
  <sodipodi:namedview id="namedview7" pagecolor="#ffffff" bordercolor="#666666" borderopacity="1.0" inkscape:pageshadow="2" inkscape:pageopacity="0.0" inkscape:pagecheckerboard="0" inkscape:document-units="mm" showgrid="false" inkscape:zoom="0.73406285" inkscape:cx="104.21451" inkscape:cy="-127.37329" inkscape:window-width="1920" inkscape:window-height="1009" inkscape:window-x="1912" inkscape:window-y="-8" inkscape:window-maximized="1" inkscape:current-layer="layer1" />
  <defs id="defs2">
    <style id="style9">.cls-1{fill:#bfbfbf;}.cls-2{fill:#7c7c7c;}.cls-3{fill:#a2a2a2;}.cls-4{fill:#4d4d4d;}.cls-5{fill:#b3b3b3;}.cls-6{fill:#434343;}.cls-7{opacity:0.11;}</style>
  </defs>
  <g inkscape:label="Ebene 1" inkscape:groupmode="layer" id="layer1" transform="translate(-77.67064,-67.006066)">
    <g id="g46" transform="matrix(0.01223748,0,0,0.0120742,76.757252,65.484838)">
      <path class="cls-1" d="m 928.88,126 c 0.38,10.11 0.68,24.83 0.3,42.7 h -161.1 c 0,0.21 0,0.42 0,0.63 -0.36,16.24 -1.05,44.36 -1.46,50.29 -3.43,48.29 -12.31,102.22 -52.28,136.59 -27,23.21 -58.65,26.21 -81.77,28.39 -5.23,0.5 -10.18,1 -14.75,1.61 -27.2,3.82 -54.45,6.14 -80.79,8.38 l -11.31,1 c -95.1,8.11 -202.86,17.41 -281.94,64.17 -27.8,16.46 -51.59,39.3 -70.72,67.9 -26.19,39.16 -43.39,88.9 -51.12,147.84 a 561.17,561.17 0 0 0 -4.59,70.31 H 74.66 a 599.66,599.66 0 0 1 5,-75.86 C 98.7,524.22 167.6,455.24 222,423 c 87.42,-51.73 200.36,-61.47 300,-70 30,-2.58 60,-4.9 89.84,-9.08 25.92,-3.64 53.42,-1.87 74.61,-20.1 29.23,-25.13 35,-71.11 37.53,-107.19 0.53,-7.63 2.13,-79.69 2.13,-89.53 a 9.53,9.53 0 0 0 0,-1.11 z" id="path15" />
      <path class="cls-2" d="m 886.49,168.66 h 42.69 A 744.67,744.67 0 0 1 920.92,266 c -7.84,50.46 -21.08,94.64 -39.39,131.3 -28,56 -67.56,95.45 -117.69,117.18 l -1.81,0.78 -1.83,0.71 c -65.39,25.39 -144.39,32.2 -220.77,38.77 -54.14,4.68 -108.94,9.48 -162,21.62 C 352.73,582 328,592.08 311.2,611 273.25,653.64 272.37,734.9 279.12,788.51 H 75.91 c -0.73,-11.37 -1.33,-25.93 -1.25,-42.7 h 158.62 c -1,-50.6 6.47,-118.76 46,-163.2 20.46,-23 50.28,-39.13 88.61,-47.88 56.51,-12.92 113.11,-17.81 167.86,-22.53 73.4,-6.32 149.29,-12.85 209,-36 l 1.11,-0.43 1,-0.44 c 40.66,-17.65 73.14,-50.33 96.46,-97.1 16.34,-32.71 28.25,-72.68 35.4,-118.78 a 699.19,699.19 0 0 0 7.77,-90.79 z" id="path17" />
      <path class="cls-3" d="m 768.08,168.66 h 118.41 a 699.19,699.19 0 0 1 -7.77,90.79 c -7.15,46.1 -19.06,86.07 -35.4,118.78 -23.32,46.77 -55.8,79.45 -96.43,97.06 l -1,0.44 -1.11,0.43 c -59.71,23.19 -135.6,29.72 -209,36 -54.78,4.76 -111.38,9.65 -167.88,22.57 -38.33,8.75 -68.15,24.87 -88.61,47.88 -39.54,44.44 -47,112.6 -46,163.2 H 117.35 a 561.17,561.17 0 0 1 4.59,-70.31 c 7.73,-58.94 24.93,-108.68 51.12,-147.84 19.13,-28.6 42.92,-51.44 70.72,-67.9 C 322.86,413 430.62,403.7 525.71,395.52 l 11.31,-1 c 26.34,-2.24 53.59,-4.56 80.79,-8.38 4.57,-0.63 9.52,-1.11 14.75,-1.61 23.12,-2.18 54.78,-5.18 81.77,-28.39 40,-34.37 48.85,-88.3 52.28,-136.59 0.41,-5.93 1.1,-34.05 1.46,-50.29 0.01,-0.18 0.01,-0.39 0.01,-0.6 z" id="path19" />
      <path class="cls-4" d="m 922.1,133 c 0.76,28.17 0.33,77.64 -8.1,132 -7.72,49.75 -20.75,93.23 -38.73,129.24 -27.21,54.45 -65.64,92.76 -114.21,113.82 l -1.68,0.72 -1.71,0.67 c -64.48,25 -143,31.79 -218.85,38.32 -53.53,4.62 -108.88,9.4 -163,21.77 -31.37,7.16 -54.23,19.2 -69.88,36.81 -42.73,48 -38.54,138.29 -34.7,175.16 H 82.51 a 614.43,614.43 0 0 1 4,-110.65 C 105.28,527.93 172.5,460.47 225.6,429 c 86.08,-50.93 198.16,-60.58 297,-69.09 L 534,359 c 25.87,-2.2 52.62,-4.48 78.87,-8.16 5.35,-0.75 10.93,-1.28 16.34,-1.79 21.37,-2 43.48,-4.12 61.85,-19.93 30,-25.81 37,-71.11 40,-112 0.31,-4.41 0.92,-28 1.38,-48.61 0.25,-10.82 0.47,-21.49 0.61,-29.26 0,-2.34 0.08,-4.45 0.1,-6.26 h 189 m -196,-7 z m 202.75,0 H 726.13 c 0.27,0 -1.54,82.45 -2.11,90.64 -2.57,36.08 -8.3,82.06 -37.53,107.19 -21.19,18.23 -48.69,16.46 -74.61,20.1 C 582.07,348.07 552,350.39 522,353 422.36,361.58 309.42,371.32 222,423 167.6,455.24 98.7,524.22 79.61,670 a 625.43,625.43 0 0 0 -3.7,118.56 H 279.12 C 272.37,734.9 273.25,653.64 311.2,611 c 16.82,-18.92 41.53,-29 66.21,-34.64 53.08,-12.14 107.88,-16.94 162,-21.62 76.38,-6.57 155.38,-13.38 220.77,-38.77 l 1.83,-0.71 1.81,-0.78 C 814,492.75 853.57,453.32 881.53,397.3 c 18.31,-36.66 31.55,-80.84 39.39,-131.3 9.33,-60.15 8.9,-114.66 8,-140 z" id="path23" />
      <rect class="cls-5" x="452.10001" y="344.04999" width="105.29" height="229.57001" rx="20.26" id="rect25" />
      <path class="cls-6" d="m 537.12,329.41 h -64.76 a 34.94,34.94 0 0 0 -34.9,34.91 v 189.05 a 34.94,34.94 0 0 0 34.9,34.9 h 64.76 a 34.94,34.94 0 0 0 34.9,-34.9 v -189 a 34.94,34.94 0 0 0 -34.9,-34.96 z m 20.26,224 a 20.26,20.26 0 0 1 -20.26,20.26 H 472.36 A 20.26,20.26 0 0 1 452.1,553.41 v -189 a 20.27,20.27 0 0 1 20.26,-20.27 h 64.76 a 20.27,20.27 0 0 1 20.26,20.27 z" id="path27" /> </g>
  </g>
</svg>
