<?xml version="1.0" encoding="UTF-8" standalone="no"?>
<!-- Created with Inkscape (http://www.inkscape.org/) -->
<svg width="12.2mm" height="11.6mm" viewBox="0 -0.5 6.2 9.2" version="1.1" id="svg5" inkscape:version="1.1.1 (3bf5ae0d25, 2021-09-20)" sodipodi:docname="matrixproject.svg" xmlns:inkscape="http://www.inkscape.org/namespaces/inkscape" xmlns:sodipodi="http://sodipodi.sourceforge.net/DTD/sodipodi-0.dtd" xmlns:xlink="http://www.w3.org/1999/xlink" xmlns="http://www.w3.org/2000/svg" xmlns:svg="http://www.w3.org/2000/svg">
  <sodipodi:namedview id="namedview7" pagecolor="#ffffff" bordercolor="#666666" borderopacity="1.0" inkscape:pageshadow="2" inkscape:pageopacity="0.0" inkscape:pagecheckerboard="0" inkscape:document-units="mm" showgrid="false" inkscape:zoom="4.1524866" inkscape:cx="-3.9735228" inkscape:cy="51.174157" inkscape:window-width="1920" inkscape:window-height="1009" inkscape:window-x="1912" inkscape:window-y="-8" inkscape:window-maximized="1" inkscape:current-layer="layer1" />
  <defs id="defs2">
    <inkscape:perspective sodipodi:type="inkscape:persp3d" inkscape:vp_x="0 : -1124.2344 : 1" inkscape:vp_y="0 : 999.99984 : 0" inkscape:vp_z="47.999998 : -1124.2344 : 1" inkscape:persp3d-origin="23.999998 : -1132.2344 : 1" id="perspective48" />
    <linearGradient inkscape:collect="always" id="linearGradient5060">
      <stop style="stop-color:black;stop-opacity:1;" offset="0" id="stop5062" />
      <stop style="stop-color:black;stop-opacity:0;" offset="1" id="stop5064" /> </linearGradient>
    <linearGradient id="linearGradient5048">
      <stop style="stop-color:black;stop-opacity:0;" offset="0" id="stop5050" />
      <stop id="stop5056" offset="0.5" style="stop-color:black;stop-opacity:1;" />
      <stop style="stop-color:black;stop-opacity:0;" offset="1" id="stop5052" /> </linearGradient>
    <radialGradient inkscape:collect="always" xlink:href="#linearGradient5060" id="radialGradient3564" cx="22.571428" cy="30.857143" fx="22.571428" fy="30.857143" r="15.571428" gradientTransform="matrix(1,0,0,0.651376,0,10.75754)" gradientUnits="userSpaceOnUse" />
    <linearGradient id="linearGradient15218">
      <stop style="stop-color:#f8f8f7;stop-opacity:1;" offset="0" id="stop15220" />
      <stop id="stop2269" offset="0.59928656" style="stop-color:#e8e8e8;stop-opacity:1;" />
      <stop style="stop-color:#e2e2de;stop-opacity:1;" offset="1" id="stop15222" /> </linearGradient>
    <linearGradient inkscape:collect="always" xlink:href="#linearGradient15218" id="linearGradient2240" gradientUnits="userSpaceOnUse" gradientTransform="matrix(1.342704,0,0,1.235378,-38.803696,-8.2719157)" x1="20.794008" y1="18.378813" x2="35.596001" y2="39.60046" />
    <linearGradient inkscape:collect="always" id="linearGradient2250">
      <stop style="stop-color:#ffffff;stop-opacity:1;" offset="0" id="stop2252" />
      <stop style="stop-color:#ffffff;stop-opacity:0;" offset="1" id="stop2254" /> </linearGradient>
    <linearGradient id="linearGradient3087">
      <stop style="stop-color:#3465a4;stop-opacity:1;" offset="0" id="stop3089" />
      <stop id="stop3095" offset="0" style="stop-color:#9fbce1;stop-opacity:1;" />
      <stop style="stop-color:#6b95ca;stop-opacity:1;" offset="0" id="stop2242" />
      <stop id="stop2244" offset="0.75" style="stop-color:#3d6aa5;stop-opacity:1;" />
      <stop style="stop-color:#386eb4;stop-opacity:1;" offset="1" id="stop3091" /> </linearGradient>
    <linearGradient id="linearGradient3077">
      <stop style="stop-color:#98a0a9;stop-opacity:1;" offset="0" id="stop3079" />
      <stop style="stop-color:#c3d0dd;stop-opacity:1;" offset="1" id="stop3081" /> </linearGradient>
    <linearGradient id="linearGradient3061">
      <stop style="stop-color:#ffffff;stop-opacity:1;" offset="0" id="stop3063" />
      <stop style="stop-color:#000000;stop-opacity:1;" offset="1" id="stop3065" /> </linearGradient>
    <linearGradient id="linearGradient3049">
      <stop style="stop-color:#b6b6b6;stop-opacity:1;" offset="0" id="stop3051" />
      <stop id="stop2262" offset="0.5" style="stop-color:#f2f2f2;stop-opacity:1;" />
      <stop style="stop-color:#fafafa;stop-opacity:1;" offset="0.67612958" id="stop2264" />
      <stop id="stop2268" offset="0.84051722" style="stop-color:#d8d8d8;stop-opacity:1;" />
      <stop id="stop2266" offset="0.875" style="stop-color:#f2f2f2;stop-opacity:1;" />
      <stop style="stop-color:#dbdbdb;stop-opacity:1;" offset="1" id="stop3053" /> </linearGradient>
    <radialGradient inkscape:collect="always" xlink:href="#linearGradient5060" id="radialGradient3047" cx="24.8125" cy="39.125" fx="24.8125" fy="39.125" r="17.6875" gradientTransform="matrix(1,0,0,0.374558,0,24.47041)" gradientUnits="userSpaceOnUse" />
    <linearGradient inkscape:collect="always" xlink:href="#linearGradient3049" id="linearGradient3055" x1="19.648342" y1="42.253601" x2="20.631224" y2="6.7758031" gradientUnits="userSpaceOnUse" gradientTransform="matrix(0.87827,0,0,0.87827,2.536988,4.967681)" />
    <linearGradient inkscape:collect="always" xlink:href="#linearGradient3061" id="linearGradient3067" x1="50.152931" y1="-3.6324477" x2="25.291086" y2="-4.3002653" gradientUnits="userSpaceOnUse" gradientTransform="matrix(0.87827,0,0,0.87827,5.328299,1.650243)" />
    <linearGradient inkscape:collect="always" xlink:href="#linearGradient3077" id="linearGradient3083" x1="38.227654" y1="13.602527" x2="37.53537" y2="6.6285896" gradientUnits="userSpaceOnUse" gradientTransform="matrix(0.87827,0,0,0.87827,2.847503,5.588712)" />
    <linearGradient inkscape:collect="always" xlink:href="#linearGradient3087" id="linearGradient3093" x1="9.7503242" y1="32.28376" x2="16.915297" y2="39.443218" gradientUnits="userSpaceOnUse" gradientTransform="matrix(0.87827,0,0,0.87827,2.536988,4.967681)" />
    <linearGradient inkscape:collect="always" xlink:href="#linearGradient2250" id="linearGradient2263" x1="12.004697" y1="35.688461" x2="10.650805" y2="33.194965" gradientUnits="userSpaceOnUse" gradientTransform="matrix(1.007254,-0.02636526,0.02636526,1.007254,1.593411,0.079191)" />
    <linearGradient inkscape:collect="always" xlink:href="#linearGradient5060" id="linearGradient2271" x1="14.017542" y1="36.942543" x2="15.415793" y2="38.268368" gradientUnits="userSpaceOnUse" gradientTransform="matrix(0.878099,-0.0173237,0.0173237,0.878099,2.163687,4.067899)" />
    <linearGradient inkscape:collect="always" xlink:href="#linearGradient2250" id="linearGradient2256" x1="31.177404" y1="19.821514" x2="40.859177" y2="9.6568537" gradientUnits="userSpaceOnUse" />
    <radialGradient inkscape:collect="always" xlink:href="#linearGradient5060" id="radialGradient2260" gradientUnits="userSpaceOnUse" gradientTransform="matrix(1,0,0,0.374558,0,24.47041)" cx="24.8125" cy="39.125" fx="24.8125" fy="39.125" r="17.6875" />
    <linearGradient inkscape:collect="always" xlink:href="#linearGradient15218" id="linearGradient324" gradientUnits="userSpaceOnUse" gradientTransform="matrix(1.342704,0,0,1.235378,-38.803696,-8.2719157)" x1="20.794008" y1="18.378813" x2="35.596001" y2="39.60046" />
    <linearGradient inkscape:collect="always" xlink:href="#linearGradient15218" id="linearGradient326" gradientUnits="userSpaceOnUse" gradientTransform="matrix(1.342704,0,0,1.235378,-38.803696,-8.2719157)" x1="20.794008" y1="18.378813" x2="35.596001" y2="39.60046" /> </defs>
  <g inkscape:label="Ebene 1" inkscape:groupmode="layer" id="layer1" transform="translate(-114.02537,-98.255507)">
    <g id="g248" transform="matrix(0.75131984,0,0,0.80245375,114.02537,98.255507)">
      <g inkscape:label="Ebene 1" id="layer1-4" transform="translate(-107.07958,-96.29963)">
        <g id="layer1-1" inkscape:label="Layer 1" transform="matrix(0.14251591,0,0,0.15960843,113.14786,96.41101)">
          <rect style="opacity:1;fill:url(#linearGradient324);fill-opacity:1;fill-rule:evenodd;stroke:#888a85;stroke-width:1;stroke-linecap:butt;stroke-linejoin:miter;stroke-miterlimit:4;stroke-dasharray:none;stroke-dashoffset:0;stroke-opacity:1" id="rect4238" width="38.996792" height="45.003101" x="-26.082483" y="-0.1978315" rx="0.56650788" ry="0.56650823" />
          <rect width="0" height="0" x="0" y="0" id="rect200" />
          <rect width="0" height="0" x="0" y="0" id="rect202" />
          <rect width="0" height="0" x="0" y="0" id="rect204" />
          <rect width="0" height="0" x="0" y="0" id="rect206" />
          <rect style="opacity:1;fill:none;fill-opacity:1;fill-rule:evenodd;stroke:#ffffff;stroke-width:1;stroke-linecap:butt;stroke-linejoin:miter;stroke-miterlimit:4;stroke-dasharray:none;stroke-dashoffset:0;stroke-opacity:1" id="rect2245" width="37.000019" height="43.022316" x="-25.08437" y="0.80498683" rx="0" ry="0" />
          <rect width="0" height="0" x="0" y="0" id="rect210" />
          <rect width="0" height="0" x="0" y="0" id="rect212" />
          <rect style="color:#000000;display:inline;overflow:visible;visibility:visible;opacity:0.5;fill:#729fcf;fill-opacity:1;fill-rule:nonzero;stroke:none;stroke-width:1;stroke-linecap:round;stroke-linejoin:round;stroke-miterlimit:4;stroke-dasharray:none;stroke-dashoffset:0;stroke-opacity:1;marker:none;marker-start:none;marker-mid:none;marker-end:none" width="0" height="0" x="0" y="0" id="rect214" />
          <rect width="0" height="0" x="0" y="0" id="rect216" />
          <rect width="0" height="0" x="0" y="0" id="rect218" />
          <rect width="0" height="0" x="0" y="0" id="rect220" />
          <rect width="0" height="0" x="0" y="0" id="rect222" />
          <rect width="0" height="0" x="0" y="0" id="rect224" />
          <rect width="0" height="0" x="0" y="0" id="rect226" />
          <rect width="0" height="0" x="0" y="0" id="rect228" />
          <rect width="0" height="0" x="0" y="0" id="rect230" /> </g>
      </g>
      <g id="layer3" inkscape:label="Ebene 2" transform="translate(-107.07958,-96.29963)">
        <g id="layer1-1-0" inkscape:label="Layer 1" transform="matrix(0.14251591,0,0,0.15960843,111.89764,97.714922)">
          <rect style="opacity:1;fill:url(#linearGradient326);fill-opacity:1;fill-rule:evenodd;stroke:#888a85;stroke-width:1;stroke-linecap:butt;stroke-linejoin:miter;stroke-miterlimit:4;stroke-dasharray:none;stroke-dashoffset:0;stroke-opacity:1" id="rect4238-4" width="38.996792" height="45.003101" x="-26.082483" y="-0.1978315" rx="0.56650788" ry="0.56650823" />
          <rect width="0" height="0" x="0" y="0" id="rect200-6" />
          <rect width="0" height="0" x="0" y="0" id="rect202-0" />
          <rect width="0" height="0" x="0" y="0" id="rect204-6" />
          <rect width="0" height="0" x="0" y="0" id="rect206-1" />
          <rect style="opacity:1;fill:none;fill-opacity:1;fill-rule:evenodd;stroke:#ffffff;stroke-width:1;stroke-linecap:butt;stroke-linejoin:miter;stroke-miterlimit:4;stroke-dasharray:none;stroke-dashoffset:0;stroke-opacity:1" id="rect2245-2" width="37.000019" height="43.022316" x="-25.08437" y="0.80498683" rx="0" ry="0" />
          <rect width="0" height="0" x="0" y="0" id="rect210-0" />
          <rect width="0" height="0" x="0" y="0" id="rect212-3" />
          <rect style="color:#000000;display:inline;overflow:visible;visibility:visible;opacity:0.5;fill:#729fcf;fill-opacity:1;fill-rule:nonzero;stroke:none;stroke-width:1;stroke-linecap:round;stroke-linejoin:round;stroke-miterlimit:4;stroke-dasharray:none;stroke-dashoffset:0;stroke-opacity:1;marker:none;marker-start:none;marker-mid:none;marker-end:none" width="0" height="0" x="0" y="0" id="rect214-7" />
          <rect width="0" height="0" x="0" y="0" id="rect216-2" />
          <rect width="0" height="0" x="0" y="0" id="rect218-8" />
          <rect width="0" height="0" x="0" y="0" id="rect220-0" />
          <rect width="0" height="0" x="0" y="0" id="rect222-5" />
          <rect width="0" height="0" x="0" y="0" id="rect224-7" />
          <rect width="0" height="0" x="0" y="0" id="rect226-0" />
          <rect width="0" height="0" x="0" y="0" id="rect228-6" />
          <rect width="0" height="0" x="0" y="0" id="rect230-2" /> </g>
      </g>
      <g id="layer4" inkscape:label="Ebene 3" transform="translate(-107.07958,-96.29963)">
        <g id="layer1-1-0-4" inkscape:label="Layer 1" transform="matrix(0.14251591,0,0,0.15960843,110.86801,99.021775)">
          <rect style="opacity:1;fill:url(#linearGradient2240);fill-opacity:1;fill-rule:evenodd;stroke:#888a85;stroke-width:1;stroke-linecap:butt;stroke-linejoin:miter;stroke-miterlimit:4;stroke-dasharray:none;stroke-dashoffset:0;stroke-opacity:1" id="rect4238-4-6" width="38.996792" height="45.003101" x="-26.082483" y="-0.1978315" rx="0.56650788" ry="0.56650823" />
          <rect width="0" height="0" x="0" y="0" id="rect200-6-7" />
          <rect width="0" height="0" x="0" y="0" id="rect202-0-7" />
          <rect width="0" height="0" x="0" y="0" id="rect204-6-0" />
          <rect width="0" height="0" x="0" y="0" id="rect206-1-7" />
          <rect style="opacity:1;fill:none;fill-opacity:1;fill-rule:evenodd;stroke:#ffffff;stroke-width:1;stroke-linecap:butt;stroke-linejoin:miter;stroke-miterlimit:4;stroke-dasharray:none;stroke-dashoffset:0;stroke-opacity:1" id="rect2245-2-5" width="37.000019" height="43.022316" x="-25.08437" y="0.80498683" rx="0" ry="0" />
          <rect width="0" height="0" x="0" y="0" id="rect210-0-5" />
          <rect width="0" height="0" x="0" y="0" id="rect212-3-2" />
          <rect style="color:#000000;display:inline;overflow:visible;visibility:visible;opacity:0.5;fill:#729fcf;fill-opacity:1;fill-rule:nonzero;stroke:none;stroke-width:1;stroke-linecap:round;stroke-linejoin:round;stroke-miterlimit:4;stroke-dasharray:none;stroke-dashoffset:0;stroke-opacity:1;marker:none;marker-start:none;marker-mid:none;marker-end:none" width="0" height="0" x="0" y="0" id="rect214-7-0" />
          <rect width="0" height="0" x="0" y="0" id="rect216-2-6" />
          <rect width="0" height="0" x="0" y="0" id="rect218-8-2" />
          <rect width="0" height="0" x="0" y="0" id="rect220-0-2" />
          <rect width="0" height="0" x="0" y="0" id="rect222-5-3" />
          <rect width="0" height="0" x="0" y="0" id="rect224-7-5" />
          <rect width="0" height="0" x="0" y="0" id="rect226-0-2" />
          <rect width="0" height="0" x="0" y="0" id="rect228-6-8" />
          <rect width="0" height="0" x="0" y="0" id="rect230-2-5" /> </g>
      </g>
      <g id="layer7" inkscape:label="Ebene 4" transform="translate(-107.07958,-96.29963)">
        <g id="layer1-8" inkscape:label="Layer 1" transform="matrix(0.11081253,0,0,0.11667444,107.38465,99.621773)">
          <ellipse transform="matrix(0.751118,0,0,0.578703,17.04087,19.36341)" id="path2258" style="color:#000000;display:inline;overflow:visible;visibility:visible;opacity:0.198864;fill:url(#radialGradient2260);fill-opacity:1;fill-rule:nonzero;stroke:none;stroke-width:1;stroke-linecap:butt;stroke-linejoin:miter;stroke-miterlimit:4;stroke-dasharray:none;stroke-dashoffset:0;stroke-opacity:1;marker:none;marker-start:none;marker-mid:none;marker-end:none" cx="24.8125" cy="39.125" rx="17.6875" ry="6.625" />
          <ellipse style="color:#000000;display:inline;overflow:visible;visibility:visible;opacity:0.3125;fill:url(#radialGradient3047);fill-opacity:1;fill-rule:nonzero;stroke:none;stroke-width:1;stroke-linecap:butt;stroke-linejoin:miter;stroke-miterlimit:4;stroke-dasharray:none;stroke-dashoffset:0;stroke-opacity:1;marker:none;marker-start:none;marker-mid:none;marker-end:none" id="path3039" transform="matrix(0.836071,0,0,0.685436,-7.959607,15.71781)" cx="24.8125" cy="39.125" rx="17.6875" ry="6.625" />
          <path style="color:#000000;display:inline;overflow:visible;visibility:visible;opacity:1;fill:url(#linearGradient3055);fill-opacity:1;fill-rule:nonzero;stroke:#888a85;stroke-width:1;stroke-linecap:butt;stroke-linejoin:miter;stroke-miterlimit:4;stroke-dasharray:none;stroke-dashoffset:0;stroke-opacity:1;marker:none;marker-start:none;marker-mid:none;marker-end:none" d="M 17.906713,21.215676 36.899302,40.6474 c 0.768486,0.87827 3.20351,1.557061 4.830485,0 1.571126,-1.503613 1.207621,-3.622864 -0.329351,-5.159837 L 23.176333,15.946056 c 2.25,-6.25 -2.303889,-11.499568 -8.178889,-10.374568 l -1.262514,1.1527294 3.952215,3.7326476 0.219568,3.293516 -2.950842,2.693603 -3.526399,-0.388144 -3.6228634,-3.403296 c 0,0 -1.2701213,1.254904 -1.2701213,1.254904 -0.5907635,5.641317 5.3077257,10.683228 11.3702257,7.308228 z" id="path2140" sodipodi:nodetypes="cczcccccccccsc" />
          <path sodipodi:nodetypes="cczccccccccccc" id="path3057" d="m 18.117385,19.9401 19.202882,20.027612 c 0.594907,0.679893 2.479927,1.205365 3.739414,0 1.216253,-1.163989 0.934853,-2.80456 -0.25496,-3.994374 L 22.313189,16.352183 c 1.5,-6.5 -1.858788,-10.0046375 -6.858788,-9.8796375 l -0.270131,0.2733768 3.602923,3.2362667 0.130166,4.181794 -3.613917,3.298483 -4.242306,-0.458209 -3.1765824,-2.991481 -0.3526371,0.430059 c -0.3125,5.96875 6.4917185,8.684765 10.5854685,5.497265 z" style="color:#000000;display:inline;overflow:visible;visibility:visible;opacity:0.426136;fill:none;fill-opacity:1;fill-rule:nonzero;stroke:#ffffff;stroke-width:0.999999;stroke-linecap:butt;stroke-linejoin:miter;stroke-miterlimit:4;stroke-dasharray:none;stroke-dashoffset:0;stroke-opacity:1;marker:none;marker-start:none;marker-mid:none;marker-end:none" />
          <rect style="color:#000000;display:inline;overflow:visible;visibility:visible;opacity:0.170455;fill:none;fill-opacity:1;fill-rule:nonzero;stroke:url(#linearGradient3067);stroke-width:0.999997;stroke-linecap:butt;stroke-linejoin:miter;stroke-miterlimit:4;stroke-dasharray:none;stroke-dashoffset:0;stroke-opacity:1;marker:none;marker-start:none;marker-mid:none;marker-end:none" id="rect3059" width="23.268276" height="2.0554912" x="28.185335" y="-2.6184492" rx="0.88388073" ry="0.88388073" transform="rotate(45.73819)" />
          <path style="color:#000000;display:inline;overflow:visible;visibility:visible;opacity:1;fill:url(#linearGradient3083);fill-opacity:1;fill-rule:nonzero;stroke:#878f9d;stroke-width:1;stroke-linecap:butt;stroke-linejoin:miter;stroke-miterlimit:4;stroke-dasharray:none;stroke-dashoffset:0;stroke-opacity:1;marker:none;marker-start:none;marker-mid:none;marker-end:none" d="M 22.498794,30.12538 C 23.332335,29.410917 35.782628,16.676871 35.782628,16.676871 l 3.073945,-0.219568 4.830485,-6.6968124 -4.024327,-3.5851919 -6.257674,5.3794063 v 3.073946 L 20.670142,27.857593 c -0.60381,0.60381 1.060166,2.926489 1.828652,2.267787 z" id="path2144" sodipodi:nodetypes="ccccccccc" />
          <path sodipodi:nodetypes="ccccccccc" id="path3085" d="M 22.401987,29.085455 C 23.04876,28.531078 35.426388,15.855648 35.426388,15.855648 l 2.928583,-0.247999 4.213916,-5.662065 -2.889731,-2.5489894 -5.476578,4.7174724 0.155258,2.850955 -12.676105,13.292323 c -0.468518,0.468518 0.123961,1.33922 0.720256,0.82811 z" style="color:#000000;display:inline;overflow:visible;visibility:visible;opacity:0.539773;fill:none;fill-opacity:1;fill-rule:nonzero;stroke:url(#linearGradient2256);stroke-width:1;stroke-linecap:butt;stroke-linejoin:miter;stroke-miterlimit:4;stroke-dasharray:none;stroke-dashoffset:0;stroke-opacity:1;marker:none;marker-start:none;marker-mid:none;marker-end:none" />
          <path style="color:#000000;display:inline;overflow:visible;visibility:visible;fill:url(#linearGradient3093);fill-opacity:1;fill-rule:nonzero;stroke:#204a87;stroke-width:1;stroke-linecap:butt;stroke-linejoin:miter;stroke-miterlimit:4;stroke-dashoffset:0;stroke-opacity:1;marker:none;marker-start:none;marker-mid:none;marker-end:none" d="m 8.4653111,43.611561 c 1.3165875,1.465229 4.9736849,2.128165 6.5954439,-0.709914 0.707107,-1.237436 2.093943,-4.702802 8.281128,-10.271268 1.039146,-0.934171 2.139909,-3.071138 1.206747,-4.223867 l -2.415243,-2.415243 c -0.988053,-1.097837 -3.734414,-0.585749 -4.861175,0.950876 -3.358757,4.596194 -8.8460727,8.25488 -10.0835097,8.696822 -2.3679195,0.845685 -2.1014106,4.336149 -0.5348231,5.996487 z" id="path2142" sodipodi:nodetypes="ccccccscc" />
          <circle style="color:#000000;display:inline;overflow:visible;visibility:visible;opacity:1;fill:#ffffff;fill-opacity:1;fill-rule:nonzero;stroke:#a1a1a1;stroke-width:1.1386;stroke-linecap:butt;stroke-linejoin:miter;stroke-miterlimit:4;stroke-dasharray:none;stroke-dashoffset:0;stroke-opacity:1;marker:none;marker-start:none;marker-mid:none;marker-end:none" id="path2146" transform="matrix(0.87827,0,0,0.87827,2.427204,5.077464)" cx="41.875" cy="37.5" r="1.375" />
          <circle style="color:#000000;display:inline;overflow:visible;visibility:visible;opacity:0.602273;fill:#ffffff;fill-opacity:1;fill-rule:nonzero;stroke:none;stroke-width:1;stroke-linecap:butt;stroke-linejoin:miter;stroke-miterlimit:4;stroke-dasharray:none;stroke-dashoffset:0;stroke-opacity:1;marker:none;marker-start:none;marker-mid:none;marker-end:none" id="path3101" transform="matrix(0.570876,0,0,0.570876,9.154848,11.25111)" cx="19.003494" cy="28.20101" r="1.767767" />
          <path style="color:#000000;display:inline;overflow:visible;visibility:visible;opacity:1;fill:none;fill-opacity:1;fill-rule:nonzero;stroke:url(#linearGradient2263);stroke-width:2.29451;stroke-linecap:round;stroke-linejoin:round;stroke-miterlimit:4;stroke-dasharray:none;stroke-dashoffset:0;stroke-opacity:1;marker:none;marker-start:none;marker-mid:none;marker-end:none" d="m 18.678905,29.624807 c 0,0 -7.169891,7.299613 -10.5286477,8.53705" id="path3103" sodipodi:nodetypes="cc" />
          <path sodipodi:nodetypes="csccccscc" id="path2270" d="m 8.8060013,42.48669 c 1.4412657,1.745617 4.5995337,2.161229 5.5911597,-0.370589 0.681307,-1.739512 3.333622,-5.665787 8.197584,-10.043353 0.816909,-0.734385 1.682258,-2.414329 0.948666,-3.32053 l -1.898707,-1.898707 c -0.776743,-0.863048 -2.935753,-0.460478 -3.82154,0.747517 -2.640436,3.613229 -8.4833446,8.339554 -9.8957495,8.805626 -2.1867947,0.72161 -1.7769924,3.221299 -0.5454432,4.526549 z" style="color:#000000;display:inline;overflow:visible;visibility:visible;opacity:0.198864;fill:none;fill-opacity:1;fill-rule:nonzero;stroke:#ffffff;stroke-width:0.999999;stroke-linecap:butt;stroke-linejoin:miter;stroke-miterlimit:4;stroke-dasharray:none;stroke-dashoffset:0;stroke-opacity:1;marker:none;marker-start:none;marker-mid:none;marker-end:none" />
          <path style="color:#000000;display:inline;overflow:visible;visibility:visible;opacity:0.278409;fill:none;fill-opacity:1;fill-rule:nonzero;stroke:url(#linearGradient2271);stroke-width:2.29451;stroke-linecap:round;stroke-linejoin:round;stroke-miterlimit:4;stroke-dashoffset:0;stroke-opacity:1;marker:none;marker-start:none;marker-mid:none;marker-end:none" d="m 20.824602,31.261024 c 0,0 -7.322763,6.617405 -8.913753,10.860045" id="path2247" sodipodi:nodetypes="cc" /> </g>
      </g>
    </g>
  </g>
</svg>
