<?xml version="1.0" encoding="UTF-8" standalone="no"?>
<!-- Created with Inkscape (http://www.inkscape.org/) -->
<svg width="7.0000005mm" height="7.0000005mm" viewBox="0 0 7.0000005 7.0000005" version="1.1" id="svg5" inkscape:version="1.1.1 (3bf5ae0d25, 2021-09-20)" sodipodi:docname="select-all.svg" xmlns:inkscape="http://www.inkscape.org/namespaces/inkscape" xmlns:sodipodi="http://sodipodi.sourceforge.net/DTD/sodipodi-0.dtd" xmlns="http://www.w3.org/2000/svg" xmlns:svg="http://www.w3.org/2000/svg">
  <sodipodi:namedview id="namedview7" pagecolor="#ffffff" bordercolor="#666666" borderopacity="1.0" inkscape:pageshadow="2" inkscape:pageopacity="0.0" inkscape:pagecheckerboard="0" inkscape:document-units="mm" showgrid="false" inkscape:zoom="8.3049731" inkscape:cx="-34.617812" inkscape:cy="24.6238" inkscape:window-width="1920" inkscape:window-height="1009" inkscape:window-x="-8" inkscape:window-y="-8" inkscape:window-maximized="1" inkscape:current-layer="svg14" />
  <defs id="defs2" />
  <g inkscape:label="Ebene 1" inkscape:groupmode="layer" id="layer1" transform="translate(-43.832777,-49.995154)">
    <svg width="288" height="288" viewBox="0 0 700 700" version="1.1" id="svg14">
      <path d="m 122.38179,121.51621 h -12.27277 c -0.63025,0 -1.14031,0.51009 -1.14031,1.1403 v 1.29017 h -0.96032 c -0.81024,0 -1.47039,0.66014 -1.47039,1.47036 v 11.64248 c 0,0.81023 0.66015,1.47037 1.47039,1.47037 h 11.64262 c 0.81024,0 1.47038,-0.66014 1.47038,-1.47037 v -0.96031 h 1.29019 c 0.63025,0 1.14031,-0.51008 1.14031,-1.1403 V 122.6563 c -0.0299,-0.63025 -0.54002,-1.1403 -1.17026,-1.1403 z m -2.28046,15.51331 c 0,0.27001 -0.21015,0.48015 -0.48016,0.48015 h -11.61262 c -0.27001,0 -0.48016,-0.21015 -0.48016,-0.48015 v -11.64248 c 0,-0.27001 0.21015,-0.48015 0.48016,-0.48015 h 11.64263 c 0.27001,0 0.48015,0.21014 0.48015,0.48015 l -2.1e-4,11.64248 z m 2.43049,-2.1004 c 0,0.09 -0.0601,0.15008 -0.15008,0.15008 h -1.29018 v -9.69207 c 0,-0.81022 -0.66015,-1.47036 -1.47039,-1.47036 H 109.959 v -1.29017 c 0,-0.09 0.0601,-0.15007 0.15007,-0.15007 h 12.27277 c 0.09,0 0.15008,0.0601 0.15008,0.15007 z" fill="#b4b4b4" class="color000 svgShape" id="path10" style="stroke-width:0.0535831" />
      <path d="m 116.35043,127.72754 -4.32103,4.92104 -0.78012,-0.81022 c -0.36002,-0.39015 -0.99023,-0.39015 -1.35025,-0.0299 -0.36002,0.36001 -0.39016,0.99021 -0.0299,1.35023 l 1.50034,1.56039 c 0.18001,0.18 0.42009,0.30015 0.6901,0.30015 h 0.0299 c 0.27001,0 0.51008,-0.11994 0.6901,-0.33009 l 5.04103,-5.70121 c 0.36001,-0.39015 0.33008,-1.02016 -0.09,-1.35023 -0.42008,-0.33029 -1.02017,-0.30036 -1.3802,0.0898 z" fill="#b4b4b4" class="color000 svgShape" id="path12" style="stroke-width:0.0535831" /> </svg>
  </g>
</svg>
